<?xml version="1.0" standalone="no"?>
<!DOCTYPE svg PUBLIC "-//W3C//DTD SVG 20010904//EN"
 "http://www.w3.org/TR/2001/REC-SVG-20010904/DTD/svg10.dtd">
<svg version="1.0" xmlns="http://www.w3.org/2000/svg"
 width="3658.000000pt" height="2581.000000pt" viewBox="0 0 3658.000000 2581.000000"
 preserveAspectRatio="xMidYMid meet">

<g transform="translate(0.000000,2581.000000) scale(0.100000,-0.100000)"
fill="#000000" stroke="none">
<path d="M3662 25026 c-38 -18 -65 -70 -54 -107 13 -45 28 -59 102 -97 68 -33
75 -40 78 -69 6 -63 -62 -91 -156 -64 -31 9 -33 8 -30 -12 2 -17 13 -24 49
-31 99 -19 179 26 179 101 0 54 -21 79 -98 114 -73 33 -82 41 -82 81 0 49 68
73 135 48 20 -8 27 -7 32 6 9 23 -7 33 -67 39 -38 4 -65 1 -88 -9z"/>
<path d="M4869 25031 c-80 -26 -121 -93 -120 -195 0 -36 7 -80 14 -98 30 -72
108 -108 203 -93 33 5 44 11 44 24 0 17 -7 18 -62 14 -76 -5 -121 17 -144 72
-33 79 -4 199 55 229 34 18 87 21 124 7 20 -8 27 -6 31 6 4 9 3 20 -2 25 -13
13 -112 19 -143 9z"/>
<path d="M7956 25025 c-41 -21 -55 -44 -56 -86 0 -49 24 -76 106 -119 65 -33
69 -37 72 -72 4 -51 -28 -72 -101 -66 -28 3 -60 9 -70 13 -16 6 -18 4 -15 -16
2 -18 12 -25 43 -32 50 -11 118 -2 150 19 28 19 49 74 40 106 -12 37 -36 59
-95 85 -69 31 -90 50 -90 80 0 52 67 79 134 53 21 -8 27 -6 36 10 9 17 5 20
-27 29 -53 15 -93 13 -127 -4z"/>
<path d="M3230 24889 c0 -193 21 -234 128 -245 55 -6 104 15 136 59 19 25 21
46 24 178 l4 149 -26 0 -26 0 0 -150 c0 -147 -1 -152 -25 -175 -34 -35 -102
-35 -142 -1 l-28 24 -3 151 c-3 141 -5 151 -23 151 -18 0 -19 -8 -19 -141z"/>
<path d="M3920 24840 l0 -190 100 0 c93 0 100 1 100 20 0 18 -7 20 -80 20
l-80 0 0 70 0 70 75 0 c68 0 75 2 75 20 0 18 -7 20 -75 20 l-75 0 0 60 0 60
80 0 c73 0 80 2 80 20 0 19 -7 20 -100 20 l-100 0 0 -190z"/>
<path d="M4210 24841 l0 -191 25 0 c25 0 25 1 25 80 l0 80 39 0 c37 0 39 -2
85 -80 38 -66 51 -80 71 -80 24 0 23 2 -25 83 -28 45 -50 85 -50 89 0 4 9 10
20 13 40 13 62 88 39 138 -17 38 -49 50 -141 55 l-88 4 0 -191z m175 124 c14
-13 25 -33 25 -45 0 -11 -11 -32 -25 -45 -19 -20 -34 -25 -75 -25 l-50 0 0 70
0 70 50 0 c41 0 56 -5 75 -25z"/>
<path d="M5100 24840 c0 -183 1 -190 20 -190 18 0 20 7 20 80 l0 80 43 0 44 0
44 -80 c35 -63 49 -80 67 -80 12 0 22 3 22 6 0 4 -20 40 -45 81 -25 40 -45 75
-45 77 0 2 16 20 35 39 26 26 35 44 35 69 0 72 -56 108 -170 108 l-70 0 0
-190z m171 132 c15 -13 22 -30 22 -52 0 -48 -31 -70 -99 -70 l-54 0 0 70 0 70
54 0 c37 0 61 -6 77 -18z"/>
<path d="M5430 24840 l0 -190 105 0 c98 0 105 1 105 20 0 18 -7 20 -85 20
l-85 0 0 70 0 70 80 0 c73 0 80 2 80 20 0 18 -7 20 -80 20 l-80 0 0 60 0 60
85 0 c78 0 85 2 85 20 0 19 -7 20 -105 20 l-105 0 0 -190z"/>
<path d="M5730 24840 l0 -192 88 4 c65 3 98 9 123 24 116 68 116 260 0 328
-25 15 -58 21 -123 24 l-88 4 0 -192z m212 112 c29 -28 33 -39 36 -99 2 -55
-1 -74 -18 -101 -25 -41 -73 -62 -140 -62 l-50 0 0 151 0 151 70 -4 c63 -3 74
-7 102 -36z"/>
<path d="M6120 24840 l0 -190 105 0 c98 0 105 1 105 20 0 18 -7 20 -85 20
l-85 0 0 70 0 70 80 0 c73 0 80 2 80 20 0 18 -7 20 -80 20 l-80 0 0 60 0 60
85 0 c78 0 85 2 85 20 0 19 -7 20 -105 20 l-105 0 0 -190z"/>
<path d="M6410 24840 c0 -183 1 -190 20 -190 19 0 20 7 20 157 0 112 3 154 11
146 6 -6 52 -75 103 -154 77 -121 96 -145 119 -147 l27 -3 0 190 c0 184 -1
191 -20 191 -18 0 -20 -8 -22 -157 l-3 -158 -100 157 c-89 140 -103 157 -127
158 l-28 0 0 -190z"/>
<path d="M6770 25010 c0 -18 7 -20 60 -20 l60 0 0 -170 c0 -163 1 -170 20
-170 19 0 20 7 20 170 l0 170 60 0 c53 0 60 2 60 20 0 19 -7 20 -140 20 -133
0 -140 -1 -140 -20z"/>
<path d="M7090 25016 c0 -7 9 -16 20 -19 19 -5 20 -14 20 -161 0 -149 -1 -156
-20 -156 -11 0 -20 -7 -20 -15 0 -12 14 -15 65 -15 50 0 65 3 65 14 0 8 -10
16 -22 18 -23 3 -23 5 -23 158 0 153 0 155 23 158 12 2 22 10 22 18 0 11 -15
14 -65 14 -49 0 -65 -3 -65 -14z"/>
<path d="M7328 24858 c-37 -95 -70 -181 -74 -190 -5 -14 -1 -18 14 -18 16 0
26 13 43 60 l22 60 78 0 77 0 24 -60 c18 -48 27 -60 45 -60 21 0 20 3 -19 103
-22 56 -54 140 -72 187 -51 131 -58 127 -138 -82z m142 -40 c0 -4 -27 -8 -61
-8 -54 0 -60 2 -54 18 10 24 46 124 52 142 4 13 63 -129 63 -152z"/>
<path d="M7640 24840 l0 -190 105 0 c98 0 105 1 105 20 0 18 -7 20 -85 20
l-85 0 0 170 c0 163 -1 170 -20 170 -19 0 -20 -7 -20 -190z"/>
<path d="M4490 24585 c0 -12 19 -15 110 -15 91 0 110 3 110 15 0 12 -19 15
-110 15 -91 0 -110 -3 -110 -15z"/>
<path d="M3572 24018 c-9 -9 -12 -133 -12 -495 l0 -484 -75 51 c-42 28 -80 48
-85 45 -6 -3 -10 -28 -10 -55 l0 -49 -1427 -3 -1428 -3 -50 -25 c-37 -18 -57
-37 -75 -70 l-25 -45 0 -8055 0 -8055 25 -45 c18 -33 38 -52 75 -70 l50 -25
788 -3 787 -3 0 -1238 c0 -1112 2 -1243 16 -1277 21 -50 40 -71 89 -98 l40
-21 2895 0 2896 0 49 25 c76 39 95 84 102 243 l6 127 787 0 c598 0 789 3 798
12 17 17 17 1999 0 2016 -9 9 -556 12 -2400 12 l-2388 0 -4 23 c-3 12 -7 39
-10 60 -7 57 -41 103 -94 129 l-47 23 -1352 3 -1353 3 0 2987 c0 1929 4 3000
10 3022 5 20 26 51 45 70 l36 35 1407 5 1407 5 47 23 c57 28 88 74 97 145 l6
52 58 3 c31 2 57 8 57 13 0 6 -20 42 -45 80 -25 38 -45 72 -45 74 0 3 6602 5
14670 5 l14670 0 0 -120 c0 -138 -11 -175 -61 -211 l-34 -24 -8995 -5 -8996
-5 -49 -25 c-38 -20 -55 -37 -75 -75 l-25 -49 -5 -2077 c-5 -2069 -5 -2078
-25 -2105 -11 -15 -36 -35 -55 -45 -34 -18 -199 -19 -5478 -19 -4618 0 -5448
2 -5476 14 -46 19 -78 68 -84 127 l-5 49 57 0 c33 0 56 4 56 11 0 6 -20 42
-45 80 -25 38 -45 72 -45 74 0 3 1970 5 4378 5 3392 0 4381 3 4390 12 17 17
17 1999 0 2016 -17 17 -10399 17 -10416 0 -17 -17 -17 -1999 0 -2016 9 -9 199
-12 795 -12 l784 0 -52 -76 c-28 -42 -47 -80 -42 -84 4 -5 31 -10 58 -12 l50
-3 6 -52 c9 -71 40 -117 97 -145 l47 -23 5445 0 5446 0 49 25 c38 20 55 37 75
75 l25 49 5 2076 5 2075 23 33 c13 17 33 38 45 45 18 9 1855 13 9017 17 l8996
5 49 25 c76 39 95 84 102 243 l6 127 787 0 c598 0 789 3 798 12 17 17 17 1999
0 2016 -18 18 -32598 18 -32616 0 -9 -9 -12 -247 -12 -1008 0 -761 3 -999 12
-1008 9 -9 199 -12 795 -12 l784 0 -51 -75 c-28 -42 -48 -80 -45 -85 3 -6 28
-10 56 -10 l49 0 0 -38 c0 -45 -27 -99 -64 -127 -27 -20 -40 -20 -1434 -25
l-1407 -5 -40 -21 c-49 -27 -68 -48 -89 -98 -14 -35 -16 -316 -16 -3037 l-1
-2999 -804 2 -804 3 -35 34 c-24 24 -38 49 -45 82 -15 67 -15 16011 0 16078 7
33 21 58 45 82 l35 34 1445 3 1444 2 0 -55 c0 -33 4 -55 11 -55 6 0 42 20 80
45 38 25 72 45 74 45 3 0 5 -215 5 -478 0 -358 3 -481 12 -490 9 -9 200 -12
800 -12 l788 0 0 -483 c0 -450 -1 -485 -19 -517 -10 -19 -30 -44 -45 -55 -27
-20 -40 -20 -1435 -25 l-1407 -5 -49 -25 c-38 -20 -55 -37 -75 -75 l-25 -49 0
-1006 0 -1006 25 -49 c20 -38 37 -55 75 -75 l49 -25 568 -3 568 -3 0 -55 c0
-32 4 -54 11 -54 6 0 42 20 80 45 38 25 72 45 74 45 3 0 5 -215 5 -478 0 -358
3 -481 12 -490 17 -17 10399 -17 10416 0 17 17 17 1999 0 2016 -17 17 -10399
17 -10416 0 -9 -9 -12 -133 -12 -495 l0 -484 -75 51 c-42 28 -80 48 -85 45 -6
-3 -10 -29 -10 -56 l0 -49 -579 2 c-565 3 -580 4 -607 23 -15 11 -35 36 -45
55 -18 33 -19 81 -19 1038 0 1102 -3 1047 61 1093 l34 24 1405 5 1406 5 49 25
c38 20 55 37 75 75 l25 49 3 483 3 483 5988 0 c4643 0 5990 3 5999 12 17 17
17 1999 0 2016 -18 18 -13598 18 -13616 0z m3188 -1008 l0 -980 -1580 0 -1580
0 0 980 0 980 1580 0 1580 0 0 -980z m4000 0 l0 -980 -1980 0 -1980 0 0 980 0
980 1980 0 1980 0 0 -980z m3200 0 l0 -980 -1580 0 -1580 0 0 980 0 980 1580
0 1580 0 0 -980z m3200 0 l0 -980 -1580 0 -1580 0 0 980 0 980 1580 0 1580 0
0 -980z m-10400 -4400 l0 -980 -1580 0 -1580 0 0 980 0 980 1580 0 1580 0 0
-980z m4000 0 l0 -980 -1980 0 -1980 0 0 980 0 980 1980 0 1980 0 0 -980z
m3200 0 l0 -980 -1580 0 -1580 0 0 980 0 980 1580 0 1580 0 0 -980z m-7200
-4400 l0 -980 -1580 0 -1580 0 0 980 0 980 1580 0 1580 0 0 -980z m4000 0 l0
-980 -1980 0 -1980 0 0 980 0 980 1980 0 1980 0 0 -980z m3200 0 l0 -980
-1580 0 -1580 0 0 980 0 980 1580 0 1580 0 0 -980z m3200 0 l0 -980 -1580 0
-1580 0 0 980 0 980 1580 0 1580 0 0 -980z m3200 0 l0 -980 -1580 0 -1580 0 0
980 0 980 1580 0 1580 0 0 -980z m3200 0 l0 -980 -1580 0 -1580 0 0 980 0 980
1580 0 1580 0 0 -980z m3200 0 l0 -980 -1580 0 -1580 0 0 980 0 980 1580 0
1580 0 0 -980z m3000 0 l0 -980 -1480 0 -1480 0 0 980 0 980 1480 0 1480 0 0
-980z m3200 0 l0 -980 -1580 0 -1580 0 0 980 0 980 1580 0 1580 0 0 -980z
m3200 0 l0 -980 -1580 0 -1580 0 0 980 0 980 1580 0 1580 0 0 -980z m-29400
-4400 l0 -980 -1580 0 -1580 0 0 980 0 980 1580 0 1580 0 0 -980z m4000 0 l0
-980 -1980 0 -1980 0 0 980 0 980 1980 0 1980 0 0 -980z m3200 0 l0 -980
-1580 0 -1580 0 0 980 0 980 1580 0 1580 0 0 -980z m-9080 -3199 c51 -27 73
-62 78 -126 l4 -55 -789 0 c-600 0 -792 -3 -801 -12 -17 -17 -17 -1999 0
-2016 9 -9 556 -12 2401 -12 l2389 0 -4 -133 c-3 -128 -4 -135 -31 -170 -17
-23 -41 -40 -65 -47 -26 -8 -890 -10 -2934 -8 l-2897 3 -36 35 c-19 19 -40 50
-45 70 -6 22 -10 488 -10 1263 l0 1227 1353 0 c1297 0 1354 -1 1387 -19z
m1680 -1201 l0 -980 -1580 0 -1580 0 0 980 0 980 1580 0 1580 0 0 -980z m3200
0 l0 -980 -1580 0 -1580 0 0 980 0 980 1580 0 1580 0 0 -980z"/>
<path d="M4750 23049 c0 -193 21 -234 128 -245 55 -6 104 15 136 59 19 25 21
46 24 178 l4 149 -26 0 -26 0 0 -150 c0 -147 -1 -152 -25 -175 -34 -35 -102
-35 -142 -1 l-28 24 -3 151 c-3 141 -5 151 -23 151 -18 0 -19 -8 -19 -141z"/>
<path d="M5110 23180 c0 -6 11 -15 25 -20 l25 -10 0 -150 0 -150 -25 -10 c-46
-17 -27 -30 45 -30 72 0 91 13 45 30 l-25 10 0 150 0 150 25 10 c46 17 27 30
-45 30 -41 0 -70 -4 -70 -10z"/>
<path d="M5320 23001 l0 -191 68 0 c120 0 186 33 218 107 22 50 18 132 -8 183
-33 65 -72 83 -185 88 l-93 4 0 -191z m201 126 c41 -28 63 -84 55 -145 -12
-91 -60 -132 -155 -132 l-51 0 0 150 0 150 59 0 c44 0 66 -6 92 -23z"/>
<path d="M7582 22960 c4 -131 12 -145 87 -145 34 0 55 6 70 19 21 19 21 19 21
-2 0 -13 6 -22 15 -22 13 0 15 21 15 130 0 109 -2 130 -15 130 -12 0 -15 -15
-15 -75 0 -97 -17 -141 -59 -150 -22 -5 -39 -2 -56 9 -24 16 -25 21 -25 116 0
95 -1 100 -21 100 -20 0 -21 -4 -17 -110z"/>
<path d="M7907 23058 c-27 -10 -42 -40 -35 -75 2 -11 28 -30 66 -48 36 -17 65
-38 68 -49 12 -38 -51 -59 -110 -36 -22 8 -26 7 -26 -9 0 -15 10 -21 40 -26
82 -14 134 17 128 76 -3 35 -9 39 -93 76 -48 22 -57 48 -21 64 18 8 36 9 65 1
36 -9 41 -8 41 8 0 28 -69 38 -123 18z"/>
<path d="M8163 23060 c-35 -14 -63 -68 -63 -120 0 -63 28 -106 80 -121 49 -15
113 -3 118 23 3 14 -2 15 -39 7 -65 -15 -119 11 -119 58 0 22 2 23 85 23 l85
0 0 31 c0 79 -73 129 -147 99z m87 -40 c11 -11 20 -29 20 -40 0 -18 -7 -20
-65 -20 -58 0 -65 2 -65 19 0 23 45 61 71 61 11 0 28 -9 39 -20z"/>
<path d="M8380 22940 c0 -123 1 -130 20 -130 18 0 20 7 20 84 0 98 20 136 71
136 22 0 29 5 29 20 0 11 -7 20 -16 20 -21 0 -57 -20 -67 -37 -11 -18 -27 -7
-27 18 0 10 -7 19 -15 19 -13 0 -15 -21 -15 -130z"/>
<path d="M8780 22940 c0 -109 2 -130 15 -130 12 0 15 15 15 75 0 97 17 141 59
150 22 5 39 2 56 -9 24 -16 25 -21 25 -116 0 -93 1 -100 20 -100 19 0 20 7 20
95 0 104 -10 137 -47 154 -35 16 -64 14 -100 -9 -33 -20 -33 -20 -33 0 0 11
-7 20 -15 20 -13 0 -15 -21 -15 -130z"/>
<path d="M9120 23062 c-14 -5 -27 -16 -28 -26 -3 -15 0 -17 14 -12 67 27 114
11 114 -38 0 -21 -6 -24 -59 -30 -74 -8 -104 -31 -103 -75 0 -18 6 -39 12 -46
20 -24 75 -29 111 -11 40 20 49 20 49 1 0 -8 7 -15 16 -15 14 0 15 15 12 110
-2 84 -7 113 -19 125 -19 19 -82 28 -119 17z m100 -156 c0 -63 -107 -91 -126
-34 -10 32 27 58 82 58 40 0 44 -2 44 -24z"/>
<path d="M9340 22940 c0 -123 1 -130 20 -130 19 0 20 7 20 90 0 83 2 93 25
115 29 30 58 32 85 5 17 -17 20 -33 20 -115 0 -74 3 -95 14 -95 10 0 15 23 18
94 2 54 9 100 16 109 20 24 61 30 88 12 23 -15 24 -21 24 -115 0 -93 1 -100
20 -100 19 0 20 7 20 90 0 112 -15 155 -59 165 -35 7 -68 0 -93 -22 -15 -13
-20 -12 -47 8 -33 24 -81 22 -112 -7 -16 -14 -18 -14 -24 5 -3 12 -13 21 -21
21 -11 0 -14 -24 -14 -130z"/>
<path d="M9843 23060 c-35 -14 -63 -68 -63 -120 0 -63 28 -106 80 -121 49 -15
113 -3 118 23 3 14 -2 15 -39 7 -65 -15 -119 11 -119 58 0 22 2 23 85 23 l85
0 0 31 c0 79 -73 129 -147 99z m87 -40 c11 -11 20 -29 20 -40 0 -18 -7 -20
-65 -20 -58 0 -65 2 -65 19 0 23 45 61 71 61 11 0 28 -9 39 -20z"/>
<path d="M8540 22750 c0 -6 38 -10 95 -10 57 0 95 4 95 10 0 6 -38 10 -95 10
-57 0 -95 -4 -95 -10z"/>
<path d="M13390 23098 l0 -71 -21 19 c-14 13 -36 19 -66 19 -36 0 -49 -5 -68
-27 -44 -51 -41 -161 6 -204 28 -25 99 -26 127 -1 19 17 20 17 25 -3 3 -11 12
-20 21 -20 14 0 16 22 16 180 0 173 -1 180 -20 180 -18 0 -20 -7 -20 -72z
m-21 -83 c8 -8 16 -39 19 -69 4 -48 2 -57 -21 -80 -31 -31 -66 -33 -98 -7 -21
16 -24 28 -24 81 0 54 3 64 25 82 27 22 74 19 99 -7z"/>
<path d="M11330 22880 c0 -183 1 -190 20 -190 18 0 20 7 20 75 0 41 3 75 8 75
4 0 16 -7 26 -15 40 -30 112 -8 134 40 7 14 12 48 12 75 0 61 -16 97 -51 116
-39 20 -72 18 -103 -7 l-27 -21 -6 21 c-3 11 -12 21 -19 21 -11 0 -14 -35 -14
-190z m145 148 c16 -7 29 -25 37 -50 29 -97 -53 -177 -117 -113 -20 19 -25 34
-25 75 0 41 5 56 25 75 27 28 42 30 80 13z"/>
<path d="M11670 23062 c-26 -8 -36 -39 -10 -34 76 18 103 9 114 -39 6 -26 4
-27 -53 -33 -71 -8 -111 -35 -111 -74 0 -33 8 -45 37 -61 31 -16 64 -14 100 8
31 19 31 19 36 0 3 -10 10 -19 16 -19 7 0 11 35 11 104 0 84 -3 108 -18 126
-19 23 -79 34 -122 22z m98 -164 c-6 -65 -109 -78 -116 -15 -4 32 20 45 81 46
37 1 38 0 35 -31z"/>
<path d="M11930 23063 c-76 -30 -61 -98 30 -133 47 -18 60 -29 60 -51 0 -30
-42 -44 -96 -32 -39 9 -45 8 -42 -6 2 -9 19 -20 41 -25 55 -14 118 9 131 47
14 40 1 57 -72 92 -49 23 -62 34 -62 52 0 29 39 40 87 25 28 -9 35 -8 40 4 3
8 3 17 1 20 -9 8 -102 14 -118 7z"/>
<path d="M12160 23063 c-76 -30 -61 -98 30 -133 47 -18 60 -29 60 -51 0 -30
-42 -44 -96 -32 -39 9 -45 8 -42 -6 2 -9 19 -20 41 -25 55 -14 118 9 131 47
14 40 1 57 -72 92 -49 23 -62 34 -62 52 0 29 39 40 87 25 28 -9 35 -8 40 4 3
8 3 17 1 20 -9 8 -102 14 -118 7z"/>
<path d="M12351 22963 c16 -60 32 -118 35 -130 4 -15 14 -23 28 -23 19 0 25
13 50 98 16 53 32 100 36 105 3 4 19 -39 36 -95 26 -94 31 -103 53 -103 22 0
26 9 57 120 39 143 39 135 16 135 -15 0 -23 -19 -42 -101 -13 -55 -27 -102
-30 -104 -4 -2 -20 42 -36 98 -24 85 -33 103 -50 105 -19 3 -25 -8 -48 -85
-42 -137 -40 -136 -60 -57 -35 142 -36 144 -56 144 -17 0 -17 -6 11 -107z"/>
<path d="M12783 23055 c-89 -38 -82 -199 10 -234 82 -31 157 25 157 117 0 102
-77 156 -167 117z m110 -47 c27 -32 23 -113 -8 -143 -53 -54 -125 -13 -125 70
0 26 5 55 11 66 22 42 89 46 122 7z"/>
<path d="M13020 22940 c0 -123 1 -130 20 -130 18 0 20 7 20 84 0 97 20 136 70
136 23 0 40 15 40 36 0 14 -53 0 -79 -22 l-30 -25 -7 25 c-3 14 -12 26 -20 26
-11 0 -14 -26 -14 -130z"/>
<path d="M15670 22990 c0 -153 2 -180 15 -180 13 0 15 27 15 180 0 153 -2 180
-15 180 -13 0 -15 -27 -15 -180z"/>
<path d="M15180 22940 c0 -123 1 -130 20 -130 18 0 20 7 20 84 0 98 20 136 71
136 22 0 29 5 29 20 0 11 -7 20 -16 20 -21 0 -57 -20 -67 -37 -11 -18 -27 -7
-27 18 0 10 -7 19 -15 19 -13 0 -15 -21 -15 -130z"/>
<path d="M15426 23055 c-38 -20 -53 -42 -61 -87 -8 -47 8 -98 41 -129 37 -35
113 -34 149 2 50 49 51 148 2 196 -31 31 -92 40 -131 18z m89 -27 c58 -26 56
-153 -4 -177 -59 -25 -111 17 -111 88 0 80 50 119 115 89z"/>
<path d="M15850 23063 c-110 -43 -94 -231 21 -249 46 -8 103 8 107 30 3 14 -1
16 -25 9 -54 -15 -95 -8 -120 21 -42 49 -33 56 68 56 l92 0 -6 42 c-3 24 -15
51 -29 65 -24 24 -80 37 -108 26z m88 -50 c6 -9 12 -25 12 -35 0 -16 -9 -18
-70 -18 -38 0 -70 2 -70 5 0 14 31 64 42 69 22 9 72 -3 86 -21z"/>
<path d="M4840 18782 c-50 -25 -67 -64 -49 -116 13 -37 22 -45 91 -79 60 -29
79 -43 84 -63 16 -65 -42 -97 -139 -77 -46 9 -48 9 -45 -11 2 -16 14 -23 49
-30 102 -20 179 26 179 104 0 49 -33 86 -96 109 -70 25 -85 40 -82 80 4 51 39
69 107 55 41 -8 51 -8 56 4 8 21 8 20 -32 31 -54 15 -83 14 -123 -7z"/>
<path d="M5060 18780 c0 -6 11 -15 25 -20 l25 -10 0 -150 0 -150 -25 -10 c-46
-17 -27 -30 45 -30 72 0 91 13 45 30 l-25 10 0 150 0 150 25 10 c46 17 27 30
-45 30 -41 0 -70 -4 -70 -10z"/>
<path d="M5280 18599 l0 -192 90 5 c75 5 97 10 129 31 47 32 73 83 73 151 1
138 -65 196 -224 196 l-68 0 0 -191z m187 131 c42 -25 63 -68 63 -127 0 -99
-56 -153 -157 -153 l-53 0 0 150 0 150 58 0 c39 0 67 -6 89 -20z"/>
<path d="M8180 18540 c0 -123 1 -130 20 -130 19 0 20 7 20 89 0 101 13 127 66
137 24 5 37 1 53 -15 18 -18 21 -33 21 -116 0 -78 3 -95 15 -95 12 0 15 18 15
104 0 87 -3 108 -19 127 -25 31 -98 34 -130 5 -22 -20 -22 -20 -28 2 -3 12
-12 22 -19 22 -11 0 -14 -26 -14 -130z"/>
<path d="M8517 18659 c-28 -11 -33 -37 -6 -31 58 15 78 13 98 -7 11 -11 21
-29 21 -40 0 -15 -10 -20 -59 -25 -36 -4 -69 -15 -85 -27 -58 -46 -11 -126 67
-116 21 3 47 13 57 22 16 15 18 14 23 -5 3 -11 10 -20 16 -20 7 0 11 37 11
108 0 95 -3 111 -19 126 -24 22 -87 29 -124 15z m113 -149 c0 -27 -43 -70 -70
-70 -35 0 -60 19 -60 46 0 29 26 42 88 43 36 1 42 -2 42 -19z"/>
<path d="M8750 18540 c0 -104 3 -130 14 -130 10 0 15 23 18 94 2 54 9 100 16
109 20 24 61 30 88 12 23 -15 24 -21 24 -115 0 -93 1 -100 20 -100 19 0 20 7
20 94 0 73 4 98 16 110 22 22 59 30 83 16 19 -10 21 -19 21 -115 0 -98 1 -105
20 -105 19 0 20 7 20 103 0 118 -11 142 -65 153 -26 5 -44 1 -71 -15 -35 -21
-37 -21 -49 -4 -19 25 -96 25 -124 -1 -21 -19 -21 -19 -21 2 0 13 -6 22 -15
22 -13 0 -15 -21 -15 -130z"/>
<path d="M9260 18663 c-51 -20 -87 -90 -76 -148 9 -45 49 -92 86 -100 41 -9
110 4 117 21 8 22 1 24 -41 13 -65 -18 -126 16 -126 72 0 5 41 9 90 9 84 0 90
1 90 20 0 28 -24 82 -43 98 -18 15 -75 24 -97 15z m75 -48 c44 -43 34 -55 -46
-55 -68 0 -70 1 -64 23 9 28 42 57 67 57 10 0 30 -11 43 -25z"/>
<path d="M12080 18698 l0 -71 -21 19 c-14 13 -36 19 -66 19 -36 0 -49 -5 -68
-27 -44 -51 -41 -161 6 -204 28 -25 99 -26 127 -1 19 17 20 17 25 -3 3 -11 12
-20 21 -20 14 0 16 22 16 180 0 173 -1 180 -20 180 -18 0 -20 -7 -20 -72z
m-21 -83 c8 -8 16 -39 19 -69 4 -48 2 -57 -21 -80 -31 -31 -66 -33 -98 -7 -21
16 -24 28 -24 81 0 54 3 64 25 82 27 22 74 19 99 -7z"/>
<path d="M12784 18705 c-3 -14 -15 -30 -25 -36 -23 -12 -25 -29 -4 -29 12 0
15 -17 15 -90 0 -83 2 -93 25 -115 24 -25 49 -31 79 -19 23 9 20 24 -5 24 -51
0 -59 15 -59 110 l0 90 35 0 c24 0 35 5 35 15 0 10 -11 15 -35 15 -32 0 -35 2
-35 30 0 36 -17 40 -26 5z"/>
<path d="M12253 18660 c-35 -14 -63 -68 -63 -120 0 -63 28 -106 80 -121 49
-15 113 -3 118 23 3 14 -2 15 -39 7 -65 -15 -119 11 -119 58 0 22 2 23 85 23
l85 0 0 31 c0 79 -73 129 -147 99z m87 -40 c11 -11 20 -29 20 -40 0 -18 -7
-20 -65 -20 -58 0 -65 2 -65 19 0 23 45 61 71 61 11 0 28 -9 39 -20z"/>
<path d="M12470 18480 c0 -183 1 -190 20 -190 18 0 20 7 20 75 0 41 3 75 8 75
4 0 16 -7 26 -15 40 -30 112 -8 134 40 7 14 12 48 12 75 0 61 -16 97 -51 116
-39 20 -72 18 -103 -7 l-27 -21 -6 21 c-3 11 -12 21 -19 21 -11 0 -14 -35 -14
-190z m145 148 c16 -7 29 -25 37 -50 29 -97 -53 -177 -117 -113 -20 19 -25 34
-25 75 0 41 5 56 25 75 27 28 42 30 80 13z"/>
<path d="M4950 14690 c0 -5 7 -10 15 -10 8 0 15 5 15 10 0 6 -7 10 -15 10 -8
0 -15 -4 -15 -10z"/>
<path d="M4800 14200 l0 -190 105 0 c98 0 105 1 105 20 0 18 -7 20 -85 20
l-85 0 0 70 0 70 80 0 c73 0 80 2 80 20 0 18 -7 20 -80 20 l-80 0 0 60 0 60
85 0 c78 0 85 2 85 20 0 19 -7 20 -105 20 l-105 0 0 -190z"/>
<path d="M5070 14376 c0 -7 9 -16 20 -19 19 -5 20 -14 20 -161 0 -149 -1 -156
-20 -156 -11 0 -20 -7 -20 -15 0 -12 14 -15 65 -15 50 0 65 3 65 14 0 8 -10
16 -22 18 -23 3 -23 5 -23 158 0 153 0 155 23 158 12 2 22 10 22 18 0 11 -15
14 -65 14 -49 0 -65 -3 -65 -14z"/>
<path d="M5280 14200 l0 -192 88 4 c99 5 143 23 178 75 60 89 32 226 -55 277
-25 15 -58 21 -123 24 l-88 4 0 -192z m212 112 c29 -28 33 -39 36 -99 2 -55
-1 -74 -18 -101 -25 -41 -73 -62 -140 -62 l-50 0 0 151 0 151 70 -4 c63 -3 74
-7 102 -36z"/>
<path d="M8180 14140 c0 -123 1 -130 20 -130 19 0 20 7 20 89 0 101 13 127 66
137 24 5 37 1 53 -15 18 -18 21 -33 21 -116 0 -78 3 -95 15 -95 12 0 15 18 15
104 0 87 -3 108 -19 127 -25 31 -98 34 -130 5 -22 -20 -22 -20 -28 2 -3 12
-12 22 -19 22 -11 0 -14 -26 -14 -130z"/>
<path d="M8517 14259 c-28 -11 -33 -37 -6 -31 58 15 78 13 98 -7 11 -11 21
-29 21 -40 0 -15 -10 -20 -59 -25 -36 -4 -69 -15 -85 -27 -58 -46 -11 -126 67
-116 21 3 47 13 57 22 16 15 18 14 23 -5 3 -11 10 -20 16 -20 7 0 11 37 11
108 0 95 -3 111 -19 126 -24 22 -87 29 -124 15z m113 -149 c0 -27 -43 -70 -70
-70 -35 0 -60 19 -60 46 0 29 26 42 88 43 36 1 42 -2 42 -19z"/>
<path d="M8750 14140 c0 -104 3 -130 14 -130 10 0 15 23 18 94 2 54 9 100 16
109 20 24 61 30 88 12 23 -15 24 -21 24 -115 0 -93 1 -100 20 -100 19 0 20 7
20 94 0 73 4 98 16 110 22 22 59 30 83 16 19 -10 21 -19 21 -115 0 -98 1 -105
20 -105 19 0 20 7 20 103 0 118 -11 142 -65 153 -26 5 -44 1 -71 -15 -35 -21
-37 -21 -49 -4 -19 25 -96 25 -124 -1 -21 -19 -21 -19 -21 2 0 13 -6 22 -15
22 -13 0 -15 -21 -15 -130z"/>
<path d="M9260 14263 c-51 -20 -87 -90 -76 -148 9 -45 49 -92 86 -100 41 -9
110 4 117 21 8 22 1 24 -41 13 -65 -18 -126 16 -126 72 0 5 41 9 90 9 84 0 90
1 90 20 0 28 -24 82 -43 98 -18 15 -75 24 -97 15z m75 -48 c44 -43 34 -55 -46
-55 -68 0 -70 1 -64 23 9 28 42 57 67 57 10 0 30 -11 43 -25z"/>
<path d="M12080 14298 l0 -71 -21 19 c-14 13 -36 19 -66 19 -36 0 -49 -5 -68
-27 -44 -51 -41 -161 6 -204 28 -25 99 -26 127 -1 19 17 20 17 25 -3 3 -11 12
-20 21 -20 14 0 16 22 16 180 0 173 -1 180 -20 180 -18 0 -20 -7 -20 -72z
m-21 -83 c8 -8 16 -39 19 -69 4 -48 2 -57 -21 -80 -31 -31 -66 -33 -98 -7 -21
16 -24 28 -24 81 0 54 3 64 25 82 27 22 74 19 99 -7z"/>
<path d="M12784 14305 c-3 -14 -15 -30 -25 -36 -23 -12 -25 -29 -4 -29 12 0
15 -17 15 -90 0 -83 2 -93 25 -115 24 -25 49 -31 79 -19 23 9 20 24 -5 24 -51
0 -59 15 -59 110 l0 90 35 0 c24 0 35 5 35 15 0 10 -11 15 -35 15 -32 0 -35 2
-35 30 0 36 -17 40 -26 5z"/>
<path d="M12253 14260 c-35 -14 -63 -68 -63 -120 0 -63 28 -106 80 -121 49
-15 113 -3 118 23 3 14 -2 15 -39 7 -65 -15 -119 11 -119 58 0 22 2 23 85 23
l85 0 0 31 c0 79 -73 129 -147 99z m87 -40 c11 -11 20 -29 20 -40 0 -18 -7
-20 -65 -20 -58 0 -65 2 -65 19 0 23 45 61 71 61 11 0 28 -9 39 -20z"/>
<path d="M12470 14080 c0 -183 1 -190 20 -190 18 0 20 7 20 75 0 41 3 75 8 75
4 0 16 -7 26 -15 40 -30 112 -8 134 40 7 14 12 48 12 75 0 61 -16 97 -51 116
-39 20 -72 18 -103 -7 l-27 -21 -6 21 c-3 11 -12 21 -19 21 -11 0 -14 -35 -14
-190z m145 148 c16 -7 29 -25 37 -50 29 -97 -53 -177 -117 -113 -20 19 -25 34
-25 75 0 41 5 56 25 75 27 28 42 30 80 13z"/>
<path d="M15145 14300 c-4 -16 -15 -32 -26 -35 -23 -7 -26 -25 -4 -25 12 0 15
-15 16 -72 1 -40 4 -86 8 -103 8 -36 47 -61 84 -51 34 8 37 35 4 29 -43 -8
-57 19 -57 113 l0 84 40 0 c29 0 40 4 40 15 0 11 -11 15 -40 15 -38 0 -40 2
-40 30 0 39 -16 39 -25 0z"/>
<path d="M15270 14263 c0 -5 22 -65 50 -132 l49 -123 -17 -36 c-12 -26 -26
-40 -49 -47 -36 -10 -45 -35 -14 -35 36 0 70 19 85 48 13 26 126 320 126 328
0 2 -8 4 -19 4 -15 0 -27 -23 -58 -111 l-39 -111 -40 108 c-27 76 -44 110 -56
112 -10 2 -18 -1 -18 -5z"/>
<path d="M15550 14080 c0 -187 0 -190 21 -190 21 0 21 4 17 75 -3 41 -3 75 -1
75 2 0 18 -7 35 -16 39 -20 87 -12 119 22 21 22 24 35 24 96 0 66 -2 71 -33
99 -18 16 -43 29 -57 29 -28 0 -75 -20 -75 -32 0 -4 -4 -8 -10 -8 -5 0 -10 9
-10 20 0 11 -7 20 -15 20 -13 0 -15 -28 -15 -190z m155 135 c20 -19 25 -34 25
-75 0 -41 -5 -56 -25 -75 -13 -14 -31 -25 -40 -25 -20 0 -57 19 -67 34 -13 18
-9 121 5 138 27 34 70 36 102 3z"/>
<path d="M15884 14251 c-54 -33 -71 -128 -34 -188 24 -40 84 -61 138 -47 21 5
38 16 40 26 3 14 -2 15 -38 7 -22 -5 -52 -6 -66 -3 -27 7 -54 39 -54 66 0 16
10 18 85 18 l85 0 0 30 c0 42 -20 79 -51 96 -38 19 -68 18 -105 -5z m94 -27
c12 -8 22 -26 22 -40 0 -23 -3 -24 -65 -24 -74 0 -83 13 -40 55 28 29 51 31
83 9z"/>
<path d="M19305 14300 c-4 -16 -15 -32 -26 -35 -25 -8 -25 -25 1 -25 19 0 20
-7 20 -95 0 -83 3 -98 21 -116 24 -24 82 -23 87 2 2 12 -3 15 -21 12 -43 -8
-57 19 -57 113 l0 84 40 0 c29 0 40 4 40 15 0 11 -11 15 -40 15 -38 0 -40 2
-40 30 0 39 -16 39 -25 0z"/>
<path d="M18235 14261 c-45 -19 -60 -49 -60 -122 0 -60 3 -72 26 -95 30 -29
95 -42 128 -25 35 19 24 30 -30 28 -65 -3 -89 22 -89 93 0 67 21 91 84 93 27
1 51 7 53 13 7 21 -72 31 -112 15z"/>
<path d="M18465 14261 c-38 -16 -58 -50 -63 -105 -5 -63 15 -109 58 -131 58
-30 132 -7 155 49 31 75 9 157 -49 181 -39 16 -70 18 -101 6z m108 -52 c11
-14 17 -38 17 -69 0 -57 -21 -87 -67 -96 -26 -5 -37 -1 -57 19 -22 22 -26 35
-26 81 0 48 4 57 27 76 33 26 79 21 106 -11z"/>
<path d="M18700 14166 c0 -120 11 -143 72 -153 28 -4 46 0 73 15 34 21 35 21
35 2 0 -11 7 -20 15 -20 13 0 15 21 15 130 0 123 -1 130 -20 130 -19 0 -20 -7
-20 -92 0 -51 -4 -98 -8 -104 -22 -34 -95 -41 -114 -11 -4 7 -8 56 -8 110 0
90 -1 97 -20 97 -19 0 -20 -7 -20 -104z"/>
<path d="M19000 14140 c0 -123 1 -130 20 -130 19 0 20 7 20 94 0 73 4 98 16
110 25 25 61 30 89 12 24 -16 25 -21 25 -116 0 -93 1 -100 20 -100 19 0 20 7
20 103 0 118 -11 142 -65 153 -36 6 -95 -11 -95 -27 0 -5 -4 -9 -10 -9 -5 0
-10 9 -10 20 0 11 -7 20 -15 20 -13 0 -15 -21 -15 -130z"/>
<path d="M21540 14140 c0 -123 1 -130 20 -130 19 0 20 7 20 91 0 50 4 99 10
109 14 26 57 34 86 15 23 -15 24 -21 24 -115 0 -93 1 -100 20 -100 19 0 20 7
20 94 0 90 1 96 26 115 31 25 53 26 80 7 16 -12 20 -29 22 -115 3 -79 7 -101
18 -101 11 0 14 22 14 105 0 99 -2 107 -25 130 -29 30 -68 32 -112 6 -26 -17
-33 -18 -43 -6 -17 21 -68 28 -101 15 -16 -7 -29 -16 -29 -21 0 -5 -4 -9 -10
-9 -5 0 -10 9 -10 20 0 11 -7 20 -15 20 -13 0 -15 -21 -15 -130z"/>
<path d="M22030 14262 c-26 -8 -36 -39 -10 -34 76 18 103 9 114 -39 6 -26 4
-27 -53 -33 -71 -8 -111 -35 -111 -74 0 -33 8 -45 37 -61 31 -16 64 -14 100 8
31 19 31 19 36 0 3 -10 10 -19 16 -19 7 0 11 35 11 104 0 84 -3 108 -18 126
-19 23 -79 34 -122 22z m98 -164 c-6 -65 -109 -78 -116 -15 -4 32 20 45 81 46
37 1 38 0 35 -31z"/>
<path d="M22274 14206 l46 -63 -28 -39 c-16 -22 -36 -51 -46 -66 -18 -27 -18
-28 2 -28 13 0 31 17 52 50 18 28 36 50 40 50 4 0 22 -22 40 -50 21 -33 39
-50 52 -50 20 0 20 1 2 28 -10 15 -30 44 -46 66 l-28 39 46 63 c39 56 42 64
25 64 -13 0 -32 -18 -55 -51 l-34 -51 -37 51 c-23 31 -44 51 -56 51 -17 0 -13
-9 25 -64z"/>
<path d="M24500 14262 c0 -5 12 -41 26 -78 14 -38 35 -93 46 -122 16 -44 24
-53 41 -50 15 2 27 17 40 53 81 215 78 205 58 205 -15 0 -27 -22 -58 -109 -21
-60 -40 -107 -43 -105 -2 3 -21 51 -40 107 -25 70 -41 103 -53 105 -9 2 -17
-1 -17 -6z"/>
<path d="M24840 14263 c-110 -43 -94 -231 21 -249 46 -8 103 8 107 30 3 14 -1
16 -25 9 -54 -15 -95 -8 -120 21 -42 49 -33 56 68 56 l92 0 -6 42 c-3 24 -15
51 -29 65 -24 24 -80 37 -108 26z m88 -50 c6 -9 12 -25 12 -35 0 -16 -9 -18
-70 -18 -38 0 -70 2 -70 5 0 14 31 64 42 69 22 9 72 -3 86 -21z"/>
<path d="M25050 14140 c0 -123 1 -130 20 -130 19 0 20 7 20 94 0 73 4 98 16
110 25 25 61 30 89 12 24 -16 25 -21 25 -116 0 -93 1 -100 20 -100 19 0 20 7
20 103 0 118 -11 142 -65 153 -36 6 -95 -11 -95 -27 0 -5 -4 -9 -10 -9 -5 0
-10 9 -10 20 0 11 -7 20 -15 20 -13 0 -15 -21 -15 -130z"/>
<path d="M25342 14164 c3 -103 5 -107 33 -131 23 -20 36 -24 68 -20 21 3 47
13 57 22 17 15 19 15 25 -4 3 -12 13 -21 21 -21 11 0 14 24 14 130 0 123 -1
130 -20 130 -19 0 -20 -7 -20 -89 0 -101 -13 -127 -66 -137 -24 -5 -37 -1 -53
15 -18 18 -21 33 -21 116 0 90 -1 95 -21 95 -21 0 -21 -4 -17 -106z"/>
<path d="M25693 14260 c-35 -14 -63 -68 -63 -120 0 -63 28 -106 80 -121 49
-15 113 -3 118 23 3 14 -2 15 -39 7 -65 -15 -119 11 -119 58 0 22 2 23 85 23
l85 0 0 31 c0 79 -73 129 -147 99z m87 -40 c11 -11 20 -29 20 -40 0 -18 -7
-20 -65 -20 -58 0 -65 2 -65 19 0 23 45 61 71 61 11 0 28 -9 39 -20z"/>
<path d="M27516 14203 c14 -37 36 -95 48 -128 19 -49 27 -60 46 -60 20 0 29
15 70 125 26 69 43 127 38 128 -22 9 -36 -13 -68 -112 -19 -58 -37 -106 -40
-106 -3 0 -21 49 -41 108 -29 88 -40 108 -57 110 -22 3 -22 3 4 -65z"/>
<path d="M27820 14262 c-26 -8 -36 -39 -10 -34 76 18 103 9 114 -39 6 -26 4
-27 -53 -33 -71 -8 -111 -35 -111 -74 0 -33 8 -45 37 -61 31 -16 64 -14 100 8
31 19 31 19 36 0 3 -10 10 -19 16 -19 7 0 11 35 11 104 0 84 -3 108 -18 126
-19 23 -79 34 -122 22z m98 -164 c-6 -65 -109 -78 -116 -15 -4 32 20 45 81 46
37 1 38 0 35 -31z"/>
<path d="M28093 14255 c-83 -36 -85 -188 -3 -230 48 -25 120 -16 120 15 0 16
-4 17 -34 9 -68 -19 -106 15 -106 94 0 64 22 88 84 90 52 2 72 20 34 31 -35 9
-60 7 -95 -9z"/>
<path d="M28320 14262 c-14 -5 -27 -16 -28 -26 -3 -15 0 -17 14 -12 67 27 114
11 114 -38 0 -21 -6 -24 -59 -30 -74 -8 -104 -31 -103 -75 0 -18 6 -39 12 -46
20 -24 75 -29 111 -11 40 20 49 20 49 1 0 -8 7 -15 16 -15 14 0 15 15 12 110
-2 84 -7 113 -19 125 -19 19 -82 28 -119 17z m100 -156 c0 -63 -107 -91 -126
-34 -10 32 27 58 82 58 40 0 44 -2 44 -24z"/>
<path d="M28540 14140 c0 -123 1 -130 20 -130 19 0 20 7 20 89 0 101 13 127
66 137 24 5 37 1 53 -15 18 -18 21 -33 21 -116 0 -90 1 -95 21 -95 21 0 21 4
17 105 -3 93 -6 108 -26 127 -29 29 -100 32 -130 5 -20 -18 -20 -18 -27 2 -3
12 -13 21 -21 21 -11 0 -14 -24 -14 -130z"/>
<path d="M28895 14261 c-45 -19 -60 -49 -60 -122 0 -60 3 -72 26 -95 30 -29
95 -42 128 -25 35 19 24 30 -30 28 -65 -3 -89 22 -89 93 0 67 21 91 84 93 27
1 51 7 53 13 7 21 -72 31 -112 15z"/>
<path d="M29080 14149 c28 -68 50 -131 50 -141 0 -37 -30 -78 -60 -85 -33 -6
-41 -33 -10 -33 29 0 65 19 80 43 7 12 39 92 71 177 45 123 54 156 42 158 -8
2 -17 2 -20 -1 -2 -3 -21 -53 -42 -112 l-37 -106 -41 108 c-32 87 -44 109 -61
111 -20 3 -18 -5 28 -119z"/>
<path d="M31812 14300 c2 -38 0 -70 -4 -70 -4 0 -8 4 -8 8 0 12 -47 32 -75 32
-14 0 -39 -13 -56 -28 -27 -24 -33 -37 -37 -87 -7 -87 32 -145 98 -145 24 0
70 21 70 32 0 4 5 8 10 8 6 0 10 -9 10 -20 0 -11 7 -20 15 -20 13 0 15 27 15
180 0 177 0 180 -21 180 -20 0 -21 -4 -17 -70z m-39 -71 c32 -17 37 -28 37
-91 0 -62 -13 -83 -57 -94 -17 -5 -33 0 -51 13 -23 17 -27 28 -30 80 -3 56 -1
63 24 82 30 24 46 26 77 10z"/>
<path d="M31285 14300 c-4 -16 -15 -32 -26 -35 -23 -7 -26 -25 -4 -25 12 0 15
-15 16 -72 1 -40 4 -86 8 -103 8 -36 47 -61 84 -51 34 8 37 35 4 29 -43 -8
-57 19 -57 113 l0 84 40 0 c29 0 40 4 40 15 0 11 -11 15 -40 15 -38 0 -40 2
-40 30 0 39 -16 39 -25 0z"/>
<path d="M32220 14304 c-6 -14 -20 -34 -33 -45 l-22 -18 23 -1 c21 0 22 -3 22
-90 0 -84 2 -93 25 -116 17 -17 34 -24 52 -22 38 4 39 22 1 33 l-33 10 -3 93
-3 92 36 0 c24 0 35 4 35 15 0 10 -11 15 -35 15 -32 0 -35 2 -35 30 0 37 -17
39 -30 4z"/>
<path d="M30234 14251 c-54 -33 -71 -128 -34 -188 24 -40 84 -61 138 -47 21 5
38 16 40 26 3 14 -2 15 -38 7 -22 -5 -52 -6 -66 -3 -27 7 -54 39 -54 66 0 16
10 18 85 18 l85 0 0 30 c0 42 -20 79 -51 96 -38 19 -68 18 -105 -5z m94 -27
c12 -8 22 -26 22 -40 0 -23 -3 -24 -65 -24 -74 0 -83 13 -40 55 28 29 51 31
83 9z"/>
<path d="M30422 14262 c2 -5 23 -63 48 -130 38 -103 48 -122 66 -122 18 0 29
19 69 126 26 69 44 128 41 131 -16 16 -36 -15 -65 -99 -18 -51 -34 -100 -37
-108 -4 -8 -24 35 -46 98 -33 91 -44 112 -60 112 -11 0 -18 -4 -16 -8z"/>
<path d="M30744 14251 c-54 -33 -71 -128 -34 -188 24 -40 84 -61 138 -47 21 5
38 16 40 26 3 14 -2 15 -38 7 -22 -5 -52 -6 -66 -3 -27 7 -54 39 -54 66 0 16
10 18 85 18 l85 0 0 30 c0 42 -20 79 -51 96 -38 19 -68 18 -105 -5z m94 -27
c12 -8 22 -26 22 -40 0 -23 -3 -24 -65 -24 -74 0 -83 13 -40 55 28 29 51 31
83 9z"/>
<path d="M30970 14140 c0 -123 1 -130 20 -130 19 0 20 7 20 89 0 101 13 127
66 137 24 5 37 1 53 -15 18 -18 21 -33 21 -116 0 -90 1 -95 21 -95 21 0 21 4
17 105 -3 93 -6 108 -26 127 -29 29 -100 32 -130 5 -20 -18 -20 -18 -27 2 -3
12 -13 21 -21 21 -11 0 -14 -24 -14 -130z"/>
<path d="M31980 14262 c-26 -8 -36 -39 -10 -34 76 18 103 9 114 -39 6 -26 4
-27 -53 -33 -71 -8 -111 -35 -111 -74 0 -33 8 -45 37 -61 31 -16 64 -14 100 8
31 19 31 19 36 0 3 -10 10 -19 16 -19 7 0 11 35 11 104 0 84 -3 108 -18 126
-19 23 -79 34 -122 22z m98 -164 c-6 -65 -109 -78 -116 -15 -4 32 20 45 81 46
37 1 38 0 35 -31z"/>
<path d="M32440 14263 c-110 -43 -94 -231 21 -249 46 -8 103 8 107 30 3 14 -1
16 -25 9 -54 -15 -95 -8 -120 21 -42 49 -33 56 68 56 l92 0 -6 42 c-3 24 -15
51 -29 65 -24 24 -80 37 -108 26z m88 -50 c6 -9 12 -25 12 -35 0 -16 -9 -18
-70 -18 -38 0 -70 2 -70 5 0 14 31 64 42 69 22 9 72 -3 86 -21z"/>
<path d="M31400 13950 c0 -6 40 -10 100 -10 60 0 100 4 100 10 0 6 -40 10
-100 10 -60 0 -100 -4 -100 -10z"/>
<path d="M34234 14390 c-79 -25 -126 -137 -104 -246 21 -101 96 -154 197 -139
152 23 194 270 63 367 -30 22 -112 31 -156 18z m125 -45 c40 -20 61 -71 61
-145 0 -106 -42 -160 -125 -160 -81 0 -125 58 -125 164 0 49 5 71 23 97 39 57
106 76 166 44z"/>
<path d="M34530 14376 c0 -7 9 -16 20 -19 19 -5 20 -14 20 -161 0 -149 -1
-156 -20 -156 -11 0 -20 -7 -20 -15 0 -12 14 -15 65 -15 50 0 65 3 65 14 0 8
-10 16 -22 18 -23 3 -23 5 -23 158 0 153 0 155 23 158 12 2 22 10 22 18 0 11
-15 14 -65 14 -49 0 -65 -3 -65 -14z"/>
<path d="M34740 14200 l0 -192 88 4 c99 5 143 23 178 75 60 89 32 226 -55 277
-25 15 -58 21 -123 24 l-88 4 0 -192z m212 112 c29 -28 33 -39 36 -99 2 -55
-1 -74 -18 -101 -25 -41 -73 -62 -140 -62 l-50 0 0 151 0 151 70 -4 c63 -3 74
-7 102 -36z"/>
<path d="M4834 9990 c-79 -25 -126 -137 -104 -246 21 -101 96 -154 197 -139
152 23 194 270 63 367 -30 22 -112 31 -156 18z m125 -45 c40 -20 61 -71 61
-145 0 -106 -42 -160 -125 -160 -81 0 -125 58 -125 164 0 49 5 71 23 97 39 57
106 76 166 44z"/>
<path d="M5130 9976 c0 -7 9 -16 20 -19 19 -5 20 -14 20 -161 0 -149 -1 -156
-20 -156 -11 0 -20 -7 -20 -15 0 -12 14 -15 65 -15 50 0 65 3 65 14 0 8 -10
16 -22 18 -23 3 -23 5 -23 158 0 153 0 155 23 158 12 2 22 10 22 18 0 11 -15
14 -65 14 -49 0 -65 -3 -65 -14z"/>
<path d="M5340 9800 l0 -192 88 4 c99 5 143 23 178 75 60 89 32 226 -55 277
-25 15 -58 21 -123 24 l-88 4 0 -192z m212 112 c29 -28 33 -39 36 -99 2 -55
-1 -74 -18 -101 -25 -41 -73 -62 -140 -62 l-50 0 0 151 0 151 70 -4 c63 -3 74
-7 102 -36z"/>
<path d="M8180 9740 c0 -123 1 -130 20 -130 19 0 20 7 20 89 0 101 13 127 66
137 24 5 37 1 53 -15 18 -18 21 -33 21 -116 0 -78 3 -95 15 -95 12 0 15 18 15
104 0 87 -3 108 -19 127 -25 31 -98 34 -130 5 -22 -20 -22 -20 -28 2 -3 12
-12 22 -19 22 -11 0 -14 -26 -14 -130z"/>
<path d="M8517 9859 c-28 -11 -33 -37 -6 -31 58 15 78 13 98 -7 11 -11 21 -29
21 -40 0 -15 -10 -20 -59 -25 -36 -4 -69 -15 -85 -27 -58 -46 -11 -126 67
-116 21 3 47 13 57 22 16 15 18 14 23 -5 3 -11 10 -20 16 -20 7 0 11 37 11
108 0 95 -3 111 -19 126 -24 22 -87 29 -124 15z m113 -149 c0 -27 -43 -70 -70
-70 -35 0 -60 19 -60 46 0 29 26 42 88 43 36 1 42 -2 42 -19z"/>
<path d="M8750 9740 c0 -104 3 -130 14 -130 10 0 15 23 18 94 2 54 9 100 16
109 20 24 61 30 88 12 23 -15 24 -21 24 -115 0 -93 1 -100 20 -100 19 0 20 7
20 94 0 73 4 98 16 110 22 22 59 30 83 16 19 -10 21 -19 21 -115 0 -98 1 -105
20 -105 19 0 20 7 20 103 0 118 -11 142 -65 153 -26 5 -44 1 -71 -15 -35 -21
-37 -21 -49 -4 -19 25 -96 25 -124 -1 -21 -19 -21 -19 -21 2 0 13 -6 22 -15
22 -13 0 -15 -21 -15 -130z"/>
<path d="M9260 9863 c-51 -20 -87 -90 -76 -148 9 -45 49 -92 86 -100 41 -9
110 4 117 21 8 22 1 24 -41 13 -65 -18 -126 16 -126 72 0 5 41 9 90 9 84 0 90
1 90 20 0 28 -24 82 -43 98 -18 15 -75 24 -97 15z m75 -48 c44 -43 34 -55 -46
-55 -68 0 -70 1 -64 23 9 28 42 57 67 57 10 0 30 -11 43 -25z"/>
<path d="M12080 9898 l0 -71 -21 19 c-14 13 -36 19 -66 19 -36 0 -49 -5 -68
-27 -44 -51 -41 -161 6 -204 28 -25 99 -26 127 -1 19 17 20 17 25 -3 3 -11 12
-20 21 -20 14 0 16 22 16 180 0 173 -1 180 -20 180 -18 0 -20 -7 -20 -72z
m-21 -83 c8 -8 16 -39 19 -69 4 -48 2 -57 -21 -80 -31 -31 -66 -33 -98 -7 -21
16 -24 28 -24 81 0 54 3 64 25 82 27 22 74 19 99 -7z"/>
<path d="M12784 9905 c-3 -14 -15 -30 -25 -36 -23 -12 -25 -29 -4 -29 12 0 15
-17 15 -90 0 -83 2 -93 25 -115 24 -25 49 -31 79 -19 23 9 20 24 -5 24 -51 0
-59 15 -59 110 l0 90 35 0 c24 0 35 5 35 15 0 10 -11 15 -35 15 -32 0 -35 2
-35 30 0 36 -17 40 -26 5z"/>
<path d="M12253 9860 c-35 -14 -63 -68 -63 -120 0 -63 28 -106 80 -121 49 -15
113 -3 118 23 3 14 -2 15 -39 7 -65 -15 -119 11 -119 58 0 22 2 23 85 23 l85
0 0 31 c0 79 -73 129 -147 99z m87 -40 c11 -11 20 -29 20 -40 0 -18 -7 -20
-65 -20 -58 0 -65 2 -65 19 0 23 45 61 71 61 11 0 28 -9 39 -20z"/>
<path d="M12470 9680 c0 -183 1 -190 20 -190 18 0 20 7 20 75 0 41 3 75 8 75
4 0 16 -7 26 -15 40 -30 112 -8 134 40 7 14 12 48 12 75 0 61 -16 97 -51 116
-39 20 -72 18 -103 -7 l-27 -21 -6 21 c-3 11 -12 21 -19 21 -11 0 -14 -35 -14
-190z m145 148 c16 -7 29 -25 37 -50 29 -97 -53 -177 -117 -113 -20 19 -25 34
-25 75 0 41 5 56 25 75 27 28 42 30 80 13z"/>
<path d="M4590 5401 c0 -184 1 -191 20 -191 18 0 20 7 20 74 l0 73 60 6 c72 6
107 26 126 73 11 27 12 43 4 74 -15 57 -45 73 -146 78 l-84 5 0 -192z m153
138 c30 -16 37 -28 37 -66 0 -45 -38 -73 -101 -73 l-49 0 0 75 0 75 46 0 c25
0 55 -5 67 -11z"/>
<path d="M4880 5576 c0 -8 10 -16 23 -18 22 -3 22 -5 22 -158 0 -153 0 -155
-22 -158 -13 -2 -23 -10 -23 -18 0 -11 15 -14 65 -14 49 0 65 3 65 14 0 7 -9
16 -20 19 -19 5 -20 14 -20 157 0 143 1 152 20 157 11 3 20 12 20 19 0 11 -16
14 -65 14 -50 0 -65 -3 -65 -14z"/>
<path d="M5090 5401 l0 -191 68 0 c86 0 134 14 176 50 41 37 61 101 53 170
-13 111 -66 152 -204 158 l-93 4 0 -191z m185 135 c45 -19 68 -66 68 -139 -1
-97 -53 -147 -155 -147 l-58 0 0 150 0 150 55 0 c31 0 71 -6 90 -14z"/>
<path d="M7840 5380 l0 -170 96 0 c86 0 95 2 92 18 -3 14 -16 18 -76 20 l-72
3 0 59 0 60 70 0 c63 0 70 2 70 20 0 18 -7 20 -70 20 l-70 0 0 50 0 49 72 3
c60 2 73 6 76 21 3 15 -6 17 -92 17 l-96 0 0 -170z"/>
<path d="M8080 5539 c0 -6 9 -13 20 -16 19 -5 20 -14 20 -143 0 -129 -1 -138
-20 -143 -43 -11 -19 -27 40 -27 59 0 83 16 40 27 -19 5 -20 14 -20 143 0 129
1 138 20 143 43 11 19 27 -40 27 -37 0 -60 -4 -60 -11z"/>
<path d="M8270 5380 l0 -170 58 0 c115 0 180 37 202 114 18 64 6 129 -31 171
-36 40 -80 55 -166 55 l-63 0 0 -170z m178 114 c47 -31 65 -114 38 -179 -18
-43 -61 -65 -126 -65 l-50 0 0 136 0 137 57 -7 c32 -4 68 -14 81 -22z"/>
<path d="M3272 20426 c-38 -18 -65 -70 -54 -107 13 -45 28 -59 102 -97 68 -33
75 -40 78 -69 6 -63 -62 -91 -156 -64 -31 9 -33 8 -30 -12 2 -17 13 -24 49
-31 99 -19 179 26 179 101 0 54 -21 79 -98 114 -73 33 -82 41 -82 81 0 49 68
73 135 48 20 -8 27 -7 32 6 9 23 -7 33 -67 39 -38 4 -65 1 -88 -9z"/>
<path d="M5640 20422 c-50 -25 -67 -64 -49 -116 13 -37 22 -45 91 -79 60 -29
79 -43 84 -63 16 -65 -42 -97 -139 -77 -46 9 -48 9 -45 -11 2 -16 14 -23 49
-30 102 -20 179 26 179 104 0 49 -33 86 -96 109 -70 25 -85 40 -82 80 4 51 39
69 107 55 41 -8 51 -8 56 4 8 21 8 20 -32 31 -54 15 -83 14 -123 -7z"/>
<path d="M3480 20410 c0 -18 7 -20 60 -20 l60 0 0 -170 c0 -163 1 -170 20
-170 19 0 20 7 20 170 l0 170 60 0 c53 0 60 2 60 20 0 19 -7 20 -140 20 -133
0 -140 -1 -140 -20z"/>
<path d="M3820 20289 c0 -193 21 -234 128 -245 55 -6 104 15 136 59 19 25 21
46 24 178 l4 149 -26 0 -26 0 0 -150 c0 -147 -1 -152 -25 -175 -34 -35 -102
-35 -142 -1 l-28 24 -3 151 c-3 141 -5 151 -23 151 -18 0 -19 -8 -19 -141z"/>
<path d="M4210 20241 l0 -191 68 0 c120 0 186 33 218 107 22 50 18 132 -8 183
-33 65 -72 83 -185 88 l-93 4 0 -191z m201 126 c41 -28 63 -84 55 -145 -12
-91 -60 -132 -155 -132 l-51 0 0 150 0 150 59 0 c44 0 66 -6 92 -23z"/>
<path d="M4600 20240 l0 -190 105 0 c98 0 105 1 105 20 0 18 -7 20 -85 20
l-85 0 0 70 0 70 80 0 c73 0 80 2 80 20 0 18 -7 20 -80 20 l-80 0 0 60 0 60
85 0 c78 0 85 2 85 20 0 19 -7 20 -105 20 l-105 0 0 -190z"/>
<path d="M4900 20240 c0 -185 0 -190 21 -190 20 0 20 4 17 155 -2 85 -1 155 2
155 3 0 50 -70 105 -155 81 -126 103 -155 122 -155 l23 0 0 190 c0 188 0 190
-21 190 -22 0 -22 -2 -17 -155 3 -85 3 -155 -1 -155 -3 0 -50 70 -104 155 -83
130 -103 155 -123 155 l-24 0 0 -190z"/>
<path d="M5260 20410 c0 -18 7 -20 60 -20 l60 0 0 -170 c0 -163 1 -170 20
-170 19 0 20 7 20 170 l0 170 60 0 c53 0 60 2 60 20 0 19 -7 20 -140 20 -133
0 -140 -1 -140 -20z"/>
<path d="M4894 16030 c-33 -13 -64 -59 -64 -94 0 -47 26 -75 96 -107 95 -43
118 -96 58 -135 -25 -17 -107 -16 -147 1 -16 7 -18 4 -15 -16 3 -21 11 -25 58
-33 77 -12 135 5 160 47 42 69 14 122 -87 168 -72 32 -94 62 -75 104 14 31 53
41 113 28 42 -8 48 -7 52 9 8 30 -96 50 -149 28z"/>
<path d="M3230 15840 l0 -190 105 0 c98 0 105 1 105 20 0 18 -7 20 -80 20
l-80 0 0 70 0 70 75 0 c68 0 75 2 75 20 0 18 -7 20 -75 20 l-75 0 0 60 0 60
80 0 c73 0 80 2 80 20 0 19 -7 20 -105 20 l-105 0 0 -190z"/>
<path d="M3522 15918 c22 -62 52 -148 66 -190 22 -65 30 -78 48 -78 19 0 29
21 82 168 82 231 78 214 51 210 -19 -3 -29 -24 -75 -156 -29 -85 -54 -155 -56
-157 -2 -2 -28 68 -58 156 -48 142 -57 159 -76 159 -22 0 -22 -2 18 -112z"/>
<path d="M3850 15840 l0 -190 105 0 c98 0 105 1 105 20 0 18 -7 20 -85 20
l-85 0 0 70 0 70 80 0 c73 0 80 2 80 20 0 18 -7 20 -80 20 l-80 0 0 60 0 60
85 0 c78 0 85 2 85 20 0 19 -7 20 -105 20 l-105 0 0 -190z"/>
<path d="M4150 15840 c0 -187 0 -190 21 -190 21 0 21 2 17 155 -2 85 -1 155 2
155 3 0 49 -70 103 -155 83 -130 103 -155 123 -155 l24 0 0 190 c0 186 0 190
-21 190 -20 0 -21 -3 -17 -155 1 -85 1 -155 -2 -155 -3 0 -50 70 -104 155 -82
128 -103 155 -122 155 l-24 0 0 -190z"/>
<path d="M4510 16010 c0 -18 7 -20 55 -20 l55 0 0 -170 0 -170 25 0 25 0 0
170 0 170 55 0 c48 0 55 2 55 20 0 19 -7 20 -135 20 -128 0 -135 -1 -135 -20z"/>
<path d="M5155 11625 c-148 -52 -138 -333 13 -375 55 -15 83 -12 132 13 61 30
90 87 90 177 0 90 -29 147 -90 178 -51 25 -88 27 -145 7z m156 -63 c51 -57 51
-187 0 -244 -52 -58 -161 -46 -196 22 -20 39 -20 161 0 200 22 43 61 61 119
56 40 -3 55 -9 77 -34z"/>
<path d="M5917 11626 c-85 -31 -123 -103 -115 -211 6 -74 32 -121 83 -152 32
-19 143 -25 198 -10 l27 7 0 95 0 95 -65 0 c-58 0 -65 -2 -65 -20 0 -17 7 -20
40 -20 l41 0 -3 -62 -3 -63 -52 -3 c-98 -6 -148 37 -160 137 -7 63 22 132 69
161 36 22 100 26 144 10 26 -10 43 -2 44 21 0 23 -133 34 -183 15z"/>
<path d="M3230 11440 l0 -190 105 0 c98 0 105 1 105 20 0 18 -7 20 -80 20
l-80 0 0 70 0 70 75 0 c68 0 75 2 75 20 0 18 -7 20 -75 20 l-75 0 0 60 0 60
80 0 c73 0 80 2 80 20 0 19 -7 20 -105 20 l-105 0 0 -190z"/>
<path d="M3522 11518 c22 -62 52 -148 66 -190 22 -65 30 -78 48 -78 19 0 29
21 82 168 82 231 78 214 51 210 -19 -3 -29 -24 -75 -156 -29 -85 -54 -155 -56
-157 -2 -2 -28 68 -58 156 -48 142 -57 159 -76 159 -22 0 -22 -2 18 -112z"/>
<path d="M3850 11440 l0 -190 105 0 c98 0 105 1 105 20 0 18 -7 20 -85 20
l-85 0 0 70 0 70 80 0 c73 0 80 2 80 20 0 18 -7 20 -80 20 l-80 0 0 60 0 60
85 0 c78 0 85 2 85 20 0 19 -7 20 -105 20 l-105 0 0 -190z"/>
<path d="M4150 11440 c0 -187 0 -190 21 -190 21 0 21 2 17 155 -2 85 -1 155 2
155 3 0 49 -70 103 -155 83 -130 103 -155 123 -155 l24 0 0 190 c0 186 0 190
-21 190 -20 0 -21 -3 -17 -155 1 -85 1 -155 -2 -155 -3 0 -50 70 -104 155 -82
128 -103 155 -122 155 l-24 0 0 -190z"/>
<path d="M4510 11610 c0 -18 7 -20 55 -20 l55 0 0 -170 0 -170 25 0 25 0 0
170 0 170 55 0 c48 0 55 2 55 20 0 19 -7 20 -135 20 -128 0 -135 -1 -135 -20z"/>
<path d="M5480 11441 l0 -191 25 0 c25 0 25 1 25 80 l0 80 39 0 c37 0 39 -2
85 -80 38 -66 51 -80 71 -80 24 0 23 2 -25 83 -28 45 -50 85 -50 89 0 4 9 10
20 13 40 13 62 88 39 138 -17 38 -49 50 -141 55 l-88 4 0 -191z m175 124 c14
-13 25 -34 25 -45 0 -11 -11 -32 -25 -45 -19 -20 -34 -25 -75 -25 l-50 0 0 70
0 70 50 0 c41 0 56 -5 75 -25z"/>
<path d="M6231 11449 c-39 -99 -71 -185 -71 -190 0 -5 8 -9 18 -9 13 0 24 16
39 58 l20 57 80 3 80 3 22 -61 c17 -45 27 -60 42 -60 10 0 19 3 19 7 0 4 -32
89 -72 190 -55 141 -75 183 -89 183 -13 0 -34 -42 -88 -181z m116 59 c12 -35
25 -71 28 -80 6 -16 0 -18 -55 -18 -45 0 -61 3 -58 13 3 6 16 42 29 80 13 37
26 67 29 67 3 0 15 -28 27 -62z"/>
<path d="M6540 11440 c0 -183 1 -190 20 -190 19 0 20 7 20 157 0 112 3 154 11
146 6 -6 52 -75 103 -154 77 -121 96 -145 119 -147 l27 -3 0 190 c0 184 -1
191 -20 191 -18 0 -20 -8 -22 -157 l-3 -158 -100 157 c-89 140 -103 157 -127
158 l-28 0 0 -190z"/>
<path d="M6920 11615 c0 -8 9 -15 20 -15 19 0 20 -7 20 -160 0 -153 -1 -160
-20 -160 -11 0 -20 -7 -20 -15 0 -12 14 -15 65 -15 51 0 65 3 65 15 0 8 -9 15
-20 15 -19 0 -20 7 -20 160 0 153 1 160 20 160 11 0 20 7 20 15 0 12 -14 15
-65 15 -51 0 -65 -3 -65 -15z"/>
<path d="M7110 11610 c0 -18 8 -20 95 -22 l95 -3 -100 -150 c-55 -82 -100
-158 -100 -167 0 -16 13 -18 130 -18 123 0 130 1 130 20 0 19 -7 20 -101 20
-84 0 -100 2 -96 15 3 8 47 75 97 149 49 75 90 145 90 156 0 19 -6 20 -120 20
-113 0 -120 -1 -120 -20z"/>
<path d="M7440 11440 l0 -190 100 0 c93 0 100 1 100 20 0 18 -7 20 -80 20
l-80 0 0 70 0 70 75 0 c68 0 75 2 75 20 0 18 -7 20 -75 20 l-75 0 0 60 0 60
80 0 c73 0 80 2 80 20 0 19 -7 20 -100 20 l-100 0 0 -190z"/>
<path d="M7730 11440 c0 -183 1 -190 20 -190 18 0 20 7 20 80 l0 80 43 0 44 0
44 -80 c35 -63 49 -80 67 -80 12 0 22 3 22 6 0 4 -20 40 -45 81 -25 40 -45 75
-45 77 0 2 16 20 35 39 26 26 35 44 35 69 0 72 -56 108 -170 108 l-70 0 0
-190z m171 132 c15 -13 22 -30 22 -52 0 -48 -31 -70 -99 -70 l-54 0 0 70 0 70
54 0 c37 0 61 -6 77 -18z"/>
<path d="M4800 11185 c0 -12 18 -15 105 -15 87 0 105 3 105 15 0 12 -18 15
-105 15 -87 0 -105 -3 -105 -15z"/>
<path d="M4599 7231 c-80 -26 -121 -93 -120 -195 0 -36 7 -80 14 -98 30 -72
108 -108 203 -93 33 5 44 11 44 24 0 17 -7 18 -62 14 -76 -5 -121 17 -144 72
-33 79 -4 199 55 229 34 18 87 21 124 7 20 -8 27 -6 31 6 4 9 3 20 -2 25 -13
13 -112 19 -143 9z"/>
<path d="M6402 7226 c-38 -18 -65 -70 -54 -107 13 -45 28 -59 102 -97 68 -33
75 -40 78 -69 6 -63 -62 -91 -156 -64 -31 9 -33 8 -30 -12 2 -17 13 -24 49
-31 99 -19 179 26 179 101 0 54 -21 79 -98 114 -73 33 -82 41 -82 81 0 49 68
73 135 48 20 -8 27 -7 32 6 9 23 -7 33 -67 39 -38 4 -65 1 -88 -9z"/>
<path d="M3030 7040 l0 -190 25 0 c24 0 25 2 25 74 l0 73 53 6 c28 3 64 10 78
17 56 26 77 114 39 163 -25 32 -75 47 -157 47 l-63 0 0 -190z m175 125 c30
-29 32 -64 7 -95 -14 -18 -32 -24 -75 -28 l-57 -4 0 76 0 76 50 0 c41 0 56 -5
75 -25z"/>
<path d="M3371 7049 c-39 -99 -71 -185 -71 -190 0 -5 8 -9 18 -9 13 0 24 16
39 58 l20 57 80 3 80 3 22 -61 c17 -45 27 -60 42 -60 10 0 19 3 19 7 0 4 -32
89 -72 190 -55 141 -75 183 -89 183 -13 0 -34 -42 -88 -181z m116 59 c12 -35
25 -71 28 -80 6 -16 0 -18 -55 -18 -45 0 -61 3 -58 13 3 6 16 42 29 80 13 37
26 67 29 67 3 0 15 -28 27 -62z"/>
<path d="M3680 7041 l0 -191 25 0 c25 0 25 1 25 80 l0 80 39 0 c37 0 39 -2 85
-80 38 -66 51 -80 71 -80 24 0 23 2 -25 83 -28 45 -50 85 -50 89 0 4 9 10 20
13 40 13 62 88 39 138 -17 38 -49 50 -141 55 l-88 4 0 -191z m175 124 c14 -13
25 -33 25 -45 0 -11 -11 -32 -25 -45 -19 -20 -34 -25 -75 -25 l-50 0 0 70 0
70 50 0 c41 0 56 -5 75 -25z"/>
<path d="M3970 7210 c0 -18 7 -20 60 -20 l60 0 0 -170 c0 -163 1 -170 20 -170
19 0 20 7 20 170 l0 170 60 0 c53 0 60 2 60 20 0 19 -7 20 -140 20 -133 0
-140 -1 -140 -20z"/>
<path d="M4280 7216 c0 -8 10 -16 23 -18 22 -3 22 -5 22 -158 0 -153 0 -155
-22 -158 -13 -2 -23 -10 -23 -18 0 -11 15 -14 65 -14 49 0 65 3 65 14 0 7 -9
16 -20 19 -19 5 -20 14 -20 157 0 143 1 152 20 157 11 3 20 12 20 19 0 11 -16
14 -65 14 -50 0 -65 -3 -65 -14z"/>
<path d="M4800 7215 c0 -8 9 -15 20 -15 19 0 20 -7 20 -160 0 -153 -1 -160
-20 -160 -11 0 -20 -7 -20 -15 0 -12 14 -15 65 -15 51 0 65 3 65 15 0 8 -9 15
-20 15 -19 0 -20 7 -20 160 0 153 1 160 20 160 11 0 20 7 20 15 0 12 -14 15
-65 15 -51 0 -65 -3 -65 -15z"/>
<path d="M5010 7040 c0 -183 1 -190 20 -190 18 0 20 7 20 75 l0 75 38 0 c101
0 157 43 157 120 0 80 -46 110 -172 110 l-63 0 0 -190z m168 133 c20 -18 25
-35 23 -80 -1 -30 -48 -53 -106 -53 l-45 0 0 75 0 75 54 0 c37 0 60 -6 74 -17z"/>
<path d="M5411 7208 c-5 -13 -37 -95 -71 -183 -34 -88 -64 -163 -67 -167 -2
-5 6 -8 19 -8 19 0 27 10 44 58 l20 57 80 3 80 3 20 -58 c16 -45 26 -59 44
-61 19 -3 22 0 16 15 -101 270 -141 363 -158 363 -10 0 -22 -10 -27 -22z m58
-113 c17 -44 31 -81 31 -82 0 -2 -27 -3 -60 -3 -33 0 -60 3 -60 7 0 10 54 162
57 160 1 -1 16 -38 32 -82z"/>
<path d="M5660 7040 c0 -183 1 -190 20 -190 18 0 20 8 22 158 l3 157 100 -157
c89 -140 103 -157 128 -158 l27 0 0 190 c0 183 -1 190 -20 190 -19 0 -20 -7
-20 -157 -1 -184 12 -186 -121 20 -75 116 -92 137 -114 137 l-25 0 0 -190z"/>
<path d="M6020 7210 c0 -18 7 -20 60 -20 l60 0 0 -170 c0 -163 1 -170 20 -170
19 0 20 7 20 170 l0 170 60 0 c53 0 60 2 60 20 0 19 -7 20 -140 20 -133 0
-140 -1 -140 -20z"/>
<path d="M3395 3225 c-148 -52 -138 -333 13 -375 55 -15 83 -12 132 13 61 30
90 87 90 177 0 90 -29 147 -90 178 -51 25 -88 27 -145 7z m156 -63 c51 -57 51
-187 0 -244 -52 -58 -161 -46 -196 22 -20 39 -20 161 0 200 22 43 61 61 119
56 40 -3 55 -9 77 -34z"/>
<path d="M3826 3226 c-82 -31 -119 -93 -118 -198 1 -72 32 -133 82 -162 37
-22 137 -29 193 -13 l27 7 0 95 0 95 -60 0 c-53 0 -60 -2 -60 -20 0 -17 7 -20
40 -20 l40 0 0 -59 c0 -66 -5 -71 -73 -71 -91 0 -147 59 -147 153 0 123 86
191 203 159 32 -9 38 -8 47 8 12 22 -2 29 -79 35 -36 4 -70 0 -95 -9z"/>
<path d="M4150 3222 c-50 -25 -67 -64 -49 -116 13 -37 22 -45 91 -79 60 -29
79 -43 84 -63 16 -65 -42 -97 -139 -77 -46 9 -48 9 -45 -11 2 -16 14 -23 49
-30 102 -20 179 26 179 104 0 49 -33 86 -96 109 -70 25 -85 40 -82 80 4 51 39
69 107 55 41 -8 51 -8 56 4 8 21 8 20 -32 31 -54 15 -83 14 -123 -7z"/>
<path d="M3030 3040 l0 -190 105 0 c98 0 105 1 105 20 0 18 -7 20 -80 20 l-80
0 0 170 0 170 -25 0 -25 0 0 -190z"/>
<path d="M3372 2418 c-17 -17 -17 -1999 0 -2016 17 -17 9799 -17 9816 0 17 17
17 1999 0 2016 -17 17 -9799 17 -9816 0z m3188 -1008 l0 -980 -1580 0 -1580 0
0 980 0 980 1580 0 1580 0 0 -980z m3400 0 l0 -980 -1680 0 -1680 0 0 980 0
980 1680 0 1680 0 0 -980z m3200 0 l0 -980 -1580 0 -1580 0 0 980 0 980 1580
0 1580 0 0 -980z"/>
<path d="M4610 1400 l0 -190 105 0 c98 0 105 1 105 20 0 18 -7 20 -85 20 l-85
0 0 170 c0 163 -1 170 -20 170 -19 0 -20 -7 -20 -190z"/>
<path d="M4860 1575 c0 -8 9 -15 20 -15 19 0 20 -7 20 -160 0 -153 -1 -160
-20 -160 -11 0 -20 -7 -20 -15 0 -12 14 -15 65 -15 51 0 65 3 65 15 0 8 -9 15
-20 15 -19 0 -20 7 -20 160 0 153 1 160 20 160 11 0 20 7 20 15 0 12 -14 15
-65 15 -51 0 -65 -3 -65 -15z"/>
<path d="M5070 1400 l0 -192 88 4 c99 5 143 23 178 75 60 89 32 226 -55 277
-25 15 -58 21 -123 24 l-88 4 0 -192z m212 112 c29 -28 33 -39 36 -99 2 -55
-1 -74 -18 -101 -25 -41 -73 -62 -140 -62 l-50 0 0 151 0 151 70 -4 c63 -3 74
-7 102 -36z"/>
<path d="M7197 1557 c-3 -8 -2 -20 3 -27 11 -18 42 -4 38 17 -4 22 -34 29 -41
10z"/>
<path d="M6835 1500 c-4 -16 -15 -32 -26 -35 -25 -8 -25 -25 1 -25 19 0 20 -7
20 -95 0 -83 3 -98 21 -116 24 -24 82 -23 87 2 2 12 -3 15 -21 12 -43 -8 -57
19 -57 113 l0 84 40 0 c29 0 40 4 40 15 0 11 -11 15 -40 15 -38 0 -40 2 -40
30 0 39 -16 39 -25 0z"/>
<path d="M7000 1340 c0 -109 2 -130 15 -130 12 0 15 15 15 75 0 108 22 145 86
145 17 0 24 6 24 20 0 29 -41 26 -79 -6 l-31 -26 0 26 c0 16 -6 26 -15 26 -13
0 -15 -21 -15 -130z"/>
<path d="M7200 1340 c0 -109 2 -130 15 -130 13 0 15 21 15 130 0 109 -2 130
-15 130 -13 0 -15 -21 -15 -130z"/>
<path d="M7359 1455 c-51 -28 -69 -127 -36 -191 28 -55 104 -68 150 -27 16 15
17 13 17 -26 0 -32 -6 -48 -26 -68 -22 -22 -32 -25 -68 -20 -23 3 -50 9 -60
13 -14 5 -17 3 -14 -12 2 -13 16 -22 45 -28 56 -12 105 -1 134 30 23 24 24 33
27 185 3 135 2 159 -11 159 -8 0 -17 -10 -20 -22 -6 -21 -7 -21 -25 -5 -27 25
-81 30 -113 12z m114 -47 c11 -14 17 -37 17 -73 0 -46 -4 -57 -26 -74 -43 -34
-86 -26 -109 20 -18 34 -19 65 -4 108 19 54 84 64 122 19z"/>
<path d="M7663 1460 c-67 -27 -85 -163 -30 -218 34 -34 103 -38 136 -8 21 19
21 19 21 -6 0 -81 -45 -117 -125 -100 -40 9 -46 8 -43 -7 5 -25 88 -38 135
-20 57 22 63 43 63 217 0 128 -2 152 -15 152 -8 0 -15 -9 -15 -20 0 -20 0 -20
-32 0 -36 21 -60 24 -95 10z m82 -32 c30 -14 49 -72 39 -123 -7 -40 -20 -53
-62 -61 -25 -5 -36 -1 -56 19 -37 37 -37 117 -1 152 27 28 42 30 80 13z"/>
<path d="M7970 1463 c-110 -43 -94 -231 21 -249 46 -8 103 8 107 30 3 14 -1
16 -25 9 -54 -15 -95 -8 -120 21 -42 49 -33 56 68 56 l92 0 -6 42 c-3 24 -15
51 -29 65 -24 24 -80 37 -108 26z m88 -50 c6 -9 12 -25 12 -35 0 -16 -9 -18
-70 -18 -38 0 -70 2 -70 5 0 14 31 64 42 69 22 9 72 -3 86 -21z"/>
<path d="M8180 1340 c0 -123 1 -130 20 -130 18 0 20 7 20 84 0 98 20 136 71
136 22 0 29 5 29 20 0 11 -7 20 -16 20 -21 0 -57 -20 -67 -37 -11 -18 -27 -7
-27 18 0 10 -7 19 -15 19 -13 0 -15 -21 -15 -130z"/>
<path d="M8580 1340 c0 -109 2 -130 15 -130 12 0 15 15 15 75 0 97 17 141 59
150 22 5 39 2 56 -9 24 -16 25 -21 25 -116 0 -93 1 -100 20 -100 19 0 20 7 20
95 0 104 -10 137 -47 154 -35 16 -64 14 -100 -9 -33 -20 -33 -20 -33 0 0 11
-7 20 -15 20 -13 0 -15 -21 -15 -130z"/>
<path d="M8920 1462 c-14 -5 -27 -16 -28 -26 -3 -15 0 -17 14 -12 67 27 114
11 114 -38 0 -21 -6 -24 -59 -30 -74 -8 -104 -31 -103 -75 0 -18 6 -39 12 -46
20 -24 75 -29 111 -11 40 20 49 20 49 1 0 -8 7 -15 16 -15 14 0 15 15 12 110
-2 84 -7 113 -19 125 -19 19 -82 28 -119 17z m100 -156 c0 -63 -107 -91 -126
-34 -10 32 27 58 82 58 40 0 44 -2 44 -24z"/>
<path d="M9140 1340 c0 -123 1 -130 20 -130 19 0 20 7 20 90 0 83 2 93 25 115
27 28 52 31 81 11 16 -12 20 -29 22 -115 3 -75 7 -101 17 -101 10 0 14 25 17
96 3 86 5 98 27 115 30 24 56 24 81 -1 17 -17 20 -33 20 -115 0 -90 1 -95 21
-95 21 0 21 4 17 106 -3 103 -5 107 -33 131 -23 20 -36 24 -63 19 -19 -3 -43
-13 -53 -22 -17 -15 -20 -15 -45 5 -34 27 -74 27 -108 0 l-27 -21 -6 21 c-3
11 -12 21 -19 21 -11 0 -14 -26 -14 -130z"/>
<path d="M9643 1460 c-35 -14 -63 -68 -63 -120 0 -63 28 -106 80 -121 49 -15
113 -3 118 23 3 14 -2 15 -39 7 -65 -15 -119 11 -119 58 0 22 2 23 85 23 l85
0 0 31 c0 79 -73 129 -147 99z m87 -40 c11 -11 20 -29 20 -40 0 -18 -7 -20
-65 -20 -58 0 -65 2 -65 19 0 23 45 61 71 61 11 0 28 -9 39 -20z"/>
<path d="M8340 1150 c0 -6 38 -10 95 -10 57 0 95 4 95 10 0 6 -38 10 -95 10
-57 0 -95 -4 -95 -10z"/>
<path d="M11290 1518 c0 -67 -1 -70 -17 -55 -46 41 -122 28 -150 -27 -22 -41
-21 -127 1 -161 31 -47 105 -57 147 -19 16 14 18 14 24 -5 3 -12 13 -21 21
-21 12 0 14 30 14 180 0 173 -1 180 -20 180 -18 0 -20 -7 -20 -72z m-25 -83
c19 -19 25 -35 25 -70 0 -26 -5 -55 -10 -65 -27 -50 -100 -49 -125 0 -51 98
39 207 110 135z"/>
<path d="M11695 1520 c-4 -16 -15 -32 -26 -35 -25 -8 -25 -25 1 -25 19 0 20
-7 20 -95 0 -83 3 -98 21 -116 24 -24 82 -23 87 2 2 12 -3 15 -21 12 -43 -8
-57 19 -57 113 l0 84 40 0 c29 0 40 4 40 15 0 11 -11 15 -40 15 -38 0 -40 2
-40 30 0 39 -16 39 -25 0z"/>
<path d="M11460 1482 c-14 -5 -27 -16 -28 -26 -3 -15 0 -17 14 -12 67 27 114
11 114 -38 0 -21 -6 -24 -59 -30 -74 -8 -104 -31 -103 -75 0 -18 6 -39 12 -46
20 -24 75 -29 111 -11 40 20 49 20 49 1 0 -8 7 -15 16 -15 14 0 15 15 12 110
-2 84 -7 113 -19 125 -19 19 -82 28 -119 17z m100 -156 c0 -63 -107 -91 -126
-34 -10 32 27 58 82 58 40 0 44 -2 44 -24z"/>
<path d="M11920 1483 c-51 -20 -87 -90 -76 -148 9 -45 49 -92 86 -100 41 -9
110 4 117 21 8 22 1 24 -41 13 -65 -18 -126 16 -126 72 0 5 41 9 90 9 84 0 90
1 90 20 0 28 -24 82 -43 98 -18 15 -75 24 -97 15z m75 -48 c44 -43 34 -55 -46
-55 -68 0 -70 1 -64 23 9 28 42 57 67 57 10 0 30 -11 43 -25z"/>
</g>
</svg>
